<?xml version="1.0" encoding="UTF-8" standalone="no"?>
<!-- Created with Inkscape (http://www.inkscape.org/) -->

<svg
   xmlns:dc="http://purl.org/dc/elements/1.1/"
   xmlns:cc="http://creativecommons.org/ns#"
   xmlns:rdf="http://www.w3.org/1999/02/22-rdf-syntax-ns#"
   xmlns:svg="http://www.w3.org/2000/svg"
   xmlns="http://www.w3.org/2000/svg"
   xmlns:sodipodi="http://sodipodi.sourceforge.net/DTD/sodipodi-0.dtd"
   xmlns:inkscape="http://www.inkscape.org/namespaces/inkscape"
   width="197.02475mm"
   height="198.90221mm"
   viewBox="0 0 197.02475 198.90221"
   version="1.1"
   id="svg70"
   inkscape:version="0.92.1 r15371"
   sodipodi:docname="radioheadmodifiedbear.svg">
  <defs
     id="defs64" />
  <sodipodi:namedview
     id="base"
     pagecolor="#000000"
     bordercolor="#666666"
     borderopacity="1.0"
     inkscape:pageopacity="0.0"
     inkscape:pageshadow="2"
     inkscape:zoom="1.6023437"
     inkscape:cx="63.274946"
     inkscape:cy="266.22869"
     inkscape:document-units="mm"
     inkscape:current-layer="layer1"
     showgrid="false"
     inkscape:window-width="1366"
     inkscape:window-height="705"
     inkscape:window-x="-8"
     inkscape:window-y="-8"
     inkscape:window-maximized="1" />
  <metadata
     id="metadata67">
    <rdf:RDF>
      <cc:Work
         rdf:about="">
        <dc:format>image/svg+xml</dc:format>
        <dc:type
           rdf:resource="http://purl.org/dc/dcmitype/StillImage" />
        <dc:title></dc:title>
      </cc:Work>
    </rdf:RDF>
  </metadata>
  <g
     inkscape:label="Layer 1"
     inkscape:groupmode="layer"
     id="layer1"
     transform="translate(-6.9353291,-59.260738)">
    <path
       style="fill:#ffffff;stroke-width:1"
       d="m 100.79325,258.02715 c -29.475306,-1.72152 -55.737726,-18.79952 -69.141617,-44.96162 -5.075771,-9.90704 -7.858927,-19.8139 -8.839394,-31.46455 -0.192451,-2.28685 -0.192451,-9.76089 0,-12.04774 0.490007,-5.82258 1.36217,-10.85282 2.761771,-15.9286 0.280666,-1.01785 0.703203,-2.58754 0.938974,-3.4882 0.444518,-1.69803 0.903127,-3.11628 1.493042,-4.61719 0.21874,-0.55656 0.297014,-0.88972 0.215408,-0.91693 -0.07054,-0.0236 -0.851017,-0.55828 -1.734481,-1.18839 C 16.828641,136.5253 10.161635,126.30856 7.8706539,114.8857 5.8006694,104.56472 7.1816923,94.180669 11.862844,84.867997 c 4.030642,-8.01855 10.40297,-14.801962 18.105954,-19.274004 9.849803,-5.7184 21.284257,-7.59492 32.532532,-5.338962 14.582032,2.924591 27.059505,12.983272 33.143307,26.7184 0.583217,1.316689 1.450747,3.642125 1.857964,4.980315 l 0.406549,1.335986 0.506304,-0.01688 c 0.27847,-0.0092 1.515021,-0.07508 2.747916,-0.146206 3.57436,-0.206223 8.48546,-0.132924 11.44623,0.170843 l 0.70434,0.07224 0.38537,-1.268179 c 1.37128,-4.512547 3.09396,-8.186452 5.69718,-12.150238 6.86617,-10.454706 17.80883,-17.716531 30.11417,-19.984528 3.07584,-0.566912 4.72397,-0.706046 8.36325,-0.706046 3.63926,0 5.2874,0.139134 8.36325,0.706046 7.55205,1.391916 14.41713,4.55203 20.58646,9.476292 2.01781,1.610576 5.32949,4.920682 6.92563,6.922289 5.61907,7.046576 8.93738,14.996368 9.99378,23.942455 0.28939,2.45078 0.28939,7.84245 0,10.29323 -1.05578,8.94087 -4.40639,16.97204 -9.9787,23.91826 -2.78382,3.47021 -6.64556,7.013 -10.24507,9.39892 -0.49857,0.33048 -0.90651,0.64679 -0.90651,0.70293 0,0.0561 0.30998,0.92526 0.68888,1.9314 8.60871,22.8609 6.59152,48.59293 -5.46171,69.67109 -3.81817,6.67705 -7.97768,12.11322 -13.47148,17.60619 -9.09699,9.09565 -19.82527,15.78103 -31.9352,19.90057 -10.04491,3.41708 -21.06883,4.91413 -31.63999,4.29671 z m -0.70041,-7.97032 c -5.089787,-19.45413 -10.52129,-40.0518 -10.579014,-40.11834 -0.04095,-0.0472 -2.857627,8.13765 -6.259253,18.18861 -3.401626,10.05095 -6.20308,18.3271 -6.225452,18.39143 -0.09741,0.28 5.945949,2.29235 9.669422,3.21978 4.437427,1.10525 7.890358,1.66629 13.158953,2.13803 0.257334,0.023 0.527444,0.0507 0.600254,0.0616 0.0807,0.012 -0.062,-0.72329 -0.36491,-1.88107 z m 13.50847,1.60152 c 5.13029,-0.53139 10.27999,-1.58913 15.08271,-3.09799 3.24379,-1.01909 4.86397,-1.65437 4.84415,-1.89938 -0.0253,-0.31321 -11.66257,-37.86489 -11.73409,-37.86419 -0.0349,0 -2.00734,6.75088 -4.38317,15.00121 -2.37584,8.25034 -5.17449,17.96904 -6.2192,21.59711 l -1.8995,6.59649 1.30652,-0.0788 c 0.7186,-0.0434 2.06975,-0.15785 3.00258,-0.25447 z m -2.22455,-28.86159 c 3.42522,-11.88899 6.20399,-21.64002 6.17504,-21.66897 -0.0289,-0.029 -5.44524,-0.0391 -12.03619,-0.0228 l -11.983553,0.0298 5.735901,21.83726 c 3.154752,12.01049 5.768572,21.74812 5.808502,21.63916 0.0399,-0.10892 2.87507,-9.9254 6.3003,-21.81439 z m -47.625065,2.17032 c -3.143304,-9.95549 -5.881255,-18.64163 -6.08435,-19.30254 -0.203085,-0.6609 -0.410098,-1.1608 -0.46003,-1.11088 -0.04993,0.0499 -2.308706,3.93306 -5.019514,8.62917 -2.710799,4.69611 -5.219579,8.99774 -5.575045,9.5592 -0.355484,0.56146 -0.620114,1.08783 -0.588077,1.16969 0.23946,0.61195 5.031581,5.69349 7.517979,7.97203 4.345338,3.98208 9.425632,7.647 14.544859,10.49264 0.682661,0.37947 1.272266,0.69033 1.31023,0.69077 0.03794,0 -2.502757,-8.14459 -5.646052,-18.10008 z m 80.417765,16.79938 c 5.93537,-3.40567 11.41407,-7.67489 16.51449,-12.86876 2.15831,-2.19785 4.84682,-5.22825 5.23978,-5.90611 0.0714,-0.12309 -11.40044,-17.25548 -11.60215,-17.32706 -0.0496,-0.0176 -2.55654,7.69357 -5.57109,17.13589 -6.70276,20.99482 -6.36205,19.91664 -6.29387,19.91664 0.031,0 0.80167,-0.42777 1.71284,-0.9506 z m -0.87533,-21.85827 c 3.21087,-10.06807 5.87404,-18.424 5.91815,-18.56876 l 0.0802,-0.26318 h -11.70467 c -6.43762,0 -11.70475,0.0343 -11.70475,0.0761 0,0.0419 2.57915,8.40945 5.73146,18.59462 3.15231,10.18516 5.73561,18.55948 5.74069,18.60959 0.014,0.13818 -0.26465,1.00378 5.93898,-18.44841 z m -64.308465,1.86765 c 2.776667,-8.2003 5.487874,-16.21782 6.024899,-17.8167 l 0.976425,-2.90705 -11.693252,0.0414 c -7.730509,0.0273 -11.67807,0.0809 -11.64844,0.15829 0.06175,0.1612 10.820896,34.2512 11.032396,34.95589 0.09363,0.31193 0.190309,0.54706 0.214848,0.52252 0.02452,-0.0245 2.316454,-6.75398 5.093124,-14.95428 z m -35.852543,-5.14278 c 1.406203,-2.35746 8.942732,-15.4139 8.942732,-15.49256 0,-0.0353 -4.263509,-0.0643 -9.474453,-0.0643 -5.472773,0 -9.474452,0.0441 -9.474452,0.10434 0,0.42858 1.876352,4.91789 3.216719,7.69627 1.767195,3.66312 5.418587,9.81212 5.674429,9.55581 0.05686,-0.0569 0.558614,-0.86675 1.115025,-1.79959 z m 127.702668,-0.5362 c 2.76743,-4.44971 5.01723,-8.9742 6.75874,-13.59216 0.27214,-0.72166 0.46833,-1.33859 0.43596,-1.37097 -0.0323,-0.0323 -4.40177,-0.0454 -9.70978,-0.0288 l -9.65092,0.0299 5.5538,8.21703 c 3.05458,4.51938 5.58627,8.21657 5.62594,8.21599 0.0397,0 0.4835,-0.66249 0.98626,-1.4709 z m -127.793158,-21.951 c -2.213711,-1.51763 -3.737946,-2.79407 -5.828134,-4.88064 -3.425854,-3.41993 -5.787549,-6.66999 -7.779197,-10.70542 -0.851914,-1.72611 -0.80925,-1.8049 -0.633228,1.16969 0.286851,4.84742 0.923357,9.1872 2.045792,13.94851 l 0.310216,1.31589 h 6.560764 6.560763 z m 79.907768,-0.0436 c -7.06151,-4.71007 -12.55351,-11.62963 -15.48737,-19.51308 -0.48227,-1.2959 -1.39115,-4.39869 -1.52655,-5.21142 -0.0862,-0.51757 -0.0953,-0.49714 -0.54328,1.22102 -0.75452,2.89384 -1.59717,5.17001 -2.90392,7.84404 -2.00591,4.10474 -4.375201,7.37999 -7.828163,10.82147 -2.096405,2.08944 -3.627053,3.37095 -5.830503,4.88156 l -1.236977,0.84802 h 18.346753 18.34675 z m 57.42906,-0.62009 c 1.26128,-5.30553 2.10959,-11.94616 2.11519,-16.55773 l 8.9e-4,-0.93354 -0.74208,1.58965 c -3.11169,6.66564 -8.05918,12.41349 -14.2215,16.52208 l -1.33675,0.89124 h 6.91231 6.91232 l 0.35937,-1.5117 z m -107.593023,0.93046 c 12.548941,-2.54376 22.6422,-11.7314 26.351098,-23.98673 0.479253,-1.58361 0.913295,-3.58956 1.201185,-5.55143 0.29019,-1.97748 0.29019,-6.91214 0,-8.88962 -0.85227,-5.80786 -2.61909,-10.41184 -5.825863,-15.18102 -4.265842,-6.34419 -11.041996,-11.2938 -18.588047,-13.57752 -1.784556,-0.54007 -5.718834,-1.34489 -5.718834,-1.16986 0,0.0194 0.130684,0.83971 0.290404,1.82288 2.164819,13.32544 2.86469,34.23969 1.750767,52.31801 -0.295504,4.79589 -0.930828,11.49287 -1.323256,13.94851 -0.0685,0.4284 -0.05917,0.61378 0.03056,0.61307 0.07082,0 0.895174,-0.15638 1.831937,-0.34629 z m -12.522789,0.0182 c 0,-0.11667 -0.07579,-0.78777 -0.168426,-1.49135 -0.644814,-4.89711 -1.143039,-11.16662 -1.491309,-18.76601 -0.191731,-4.18386 -0.192495,-19.36925 -8.89e-4,-23.51068 0.444118,-9.61345 1.169773,-17.50336 2.129449,-23.15301 0.125034,-0.73608 0.208373,-1.35732 0.185184,-1.3805 -0.08982,-0.0898 -3.600848,0.68295 -4.928402,1.08475 -7.78052,2.35478 -14.487757,7.32924 -18.91645,14.02945 -0.937464,1.41832 -1.165071,1.85781 -2.212787,4.27269 -1.204884,2.77715 -2.653653,6.83818 -2.954976,8.28309 -0.454025,2.17711 -0.576197,3.58299 -0.576197,6.6304 0,3.24471 0.116078,4.43747 0.705318,7.24749 2.780383,13.25935 13.285137,23.77048 26.650698,26.66689 1.594317,0.34551 1.57908,0.34466 1.57908,0.0868 z m 79.958362,-0.46044 c -0.0378,-0.24125 -0.17162,-1.43871 -0.29745,-2.66104 -1.94328,-18.87968 -1.87113,-43.70035 0.18002,-61.91909 0.16199,-1.43883 0.26961,-2.64097 0.23916,-2.67141 -0.0815,-0.0815 -3.00753,0.5092 -4.22599,0.85328 -4.41848,1.24775 -8.63841,3.40719 -12.24844,6.26786 -1.54224,1.2221 -4.11256,3.79242 -5.33465,5.33464 -4.01798,5.07053 -6.44592,10.88442 -7.28879,17.45356 -0.20644,1.60893 -0.20644,6.22795 0,7.83689 0.84602,6.59367 3.2581,12.36672 7.29644,17.46313 1.18183,1.49149 3.7705,4.08781 5.23526,5.25074 4.40521,3.49745 9.20181,5.75539 14.62107,6.88265 2.04743,0.42589 1.90547,0.433 1.82337,-0.0912 z m 12.11882,0.0352 c 6.43327,-1.33861 12.30875,-4.53885 17.06464,-9.29474 5.52692,-5.52692 8.81029,-12.28842 9.83126,-20.24573 0.20645,-1.60894 0.20645,-6.22796 0,-7.83689 -1.02081,-7.95591 -4.29938,-14.70642 -9.83291,-20.24572 -3.63002,-3.6338 -7.84641,-6.31433 -12.67811,-8.06001 -1.99518,-0.72083 -5.9229,-1.68272 -6.10945,-1.49616 -0.0353,0.0353 0.0154,0.68892 0.11266,1.45243 0.61782,4.84863 1.13696,11.83246 1.4944,20.10317 0.19408,4.49121 0.19412,21.00606 7e-5,25.49915 -0.18447,4.271 -0.43743,8.67946 -0.67119,11.69685 -0.20675,2.66902 -0.72044,7.91175 -0.82231,8.3925 -0.0839,0.39604 -0.11972,0.39526 1.61094,0.0352 z m -46.12182,-43.46543 c 1.9757,-7.65536 5.93655,-14.25626 11.80545,-19.67421 6.20732,-5.73038 13.81938,-9.22274 22.5381,-10.34035 2.28235,-0.29256 7.07514,-0.29256 9.35748,0 3.94582,0.5058 8.22539,1.64349 11.1705,2.9696 1.54916,0.69754 1.55944,0.73265 -0.35091,-1.19935 -3.13178,-3.16731 -5.64984,-5.38588 -8.79221,-7.74653 -6.47643,-4.86526 -13.73601,-8.71941 -21.32718,-11.32269 -0.90067,-0.30887 -1.66315,-0.58239 -1.69441,-0.60783 -0.11029,-0.0897 1.44196,-6.067801 1.84529,-7.106619 2.45514,-6.323604 7.75095,-12.149953 13.90465,-15.297646 3.14735,-1.609909 5.97267,-2.514173 9.63059,-3.082329 1.88862,-0.293345 6.29918,-0.293345 8.1878,0 5.58714,0.867809 10.28628,2.900238 14.62107,6.323765 1.19494,0.943728 3.75186,3.530401 4.70436,4.759087 3.31943,4.281927 5.27618,8.869286 6.13114,14.373722 0.29334,1.88861 0.29334,6.29917 0,8.18779 -0.862,5.54974 -2.92022,10.32873 -6.27182,14.56258 -1.01749,1.28533 -3.58327,3.81691 -4.8561,4.79135 -0.57899,0.44326 -1.09833,0.8449 -1.15409,0.89251 -0.0557,0.0476 0.50559,1.10421 1.24742,2.34797 0.74183,1.24377 1.73933,3.01178 2.2167,3.92891 l 0.86792,1.6675 0.80888,-0.57095 c 3.33901,-2.35681 6.20413,-5.09383 8.73286,-8.34238 4.50214,-5.78366 7.28378,-12.67886 8.17796,-20.27172 0.19794,-1.68076 0.19794,-6.97492 0,-8.65568 -1.10295,-9.365574 -5.0597,-17.595942 -11.60675,-24.142997 -8.90688,-8.906891 -21.41188,-13.071843 -33.91279,-11.295124 -11.70903,1.664177 -22.22512,8.582157 -28.44375,18.711623 -2.31603,3.772578 -3.58248,6.892952 -4.95292,12.203509 -0.47035,1.822631 -0.88284,3.341553 -0.91664,3.375349 -0.0338,0.03372 -0.63044,-0.02131 -1.32586,-0.122448 -7.0376,-1.02352 -15.06562,-1.01387 -22.13343,0.02662 l -1.372961,0.202108 -0.617226,-3.19305 c -0.339483,-1.756181 -0.65607,-3.193062 -0.703559,-3.193062 -0.04744,0 -0.152416,-0.223699 -0.233195,-0.497115 C 90.864988,91.048035 89.2843,87.543231 87.885214,85.184051 79.554808,71.137054 63.585889,63.474815 47.514077,65.813116 27.290731,68.755423 12.416749,86.41917 13.050119,106.74114 c 0.183672,5.89323 1.446938,11.11911 3.938659,16.29348 2.935982,6.09694 7.420372,11.43679 12.852152,15.3039 l 1.217261,0.86661 0.855682,-1.64071 c 0.930571,-1.78431 1.94273,-3.56961 2.940832,-5.1872 l 0.637235,-1.03272 -0.269019,-0.18843 c -0.674665,-0.47256 -2.365497,-1.95294 -3.314717,-2.90216 -4.71373,-4.71372 -7.701011,-10.70452 -8.66815,-17.38337 -0.393822,-2.71962 -0.34206,-6.4501 0.127761,-9.2078 2.190202,-12.85588 12.299792,-22.96706 25.082013,-25.08599 13.207859,-2.189491 26.189888,4.400769 32.289187,16.391447 1.135104,2.231516 1.446555,3.190446 2.034658,6.264677 0.293034,1.531746 0.532778,2.851486 0.532778,2.932766 0,0.0874 -0.821538,0.42089 -2.011346,0.8164 -10.144246,3.37206 -19.378865,8.75259 -27.347759,15.93409 -1.455796,1.31196 -4.207926,4.02514 -4.082911,4.02514 0.03616,0 0.403702,-0.13818 0.816865,-0.30708 3.250774,-1.32886 7.162859,-2.30519 11.044461,-2.75632 1.66423,-0.19342 6.757496,-0.19342 8.421736,0 8.100892,0.94153 15.041303,3.80415 21.346757,8.80463 1.593712,1.26388 4.955623,4.62397 6.192926,6.18957 3.78503,4.78933 6.30435,9.84065 7.74068,15.52031 0.21454,0.8484 0.40255,1.5301 0.41778,1.51487 0.0153,-0.0153 0.18324,-0.63044 0.37337,-1.36711 z m -65.593965,-26.3235 c 1.893143,-2.39292 3.680764,-4.38773 6.126391,-6.83649 8.05687,-8.06715 17.425062,-14.25025 28.005219,-18.483676 0.90676,-0.362817 1.648656,-0.671477 1.648656,-0.685899 0,-0.304546 -1.45314,-3.284349 -2.139987,-4.388224 -1.875543,-3.014343 -4.911627,-6.050197 -7.927108,-7.926513 -4.42586,-2.75389 -10.040353,-4.059225 -15.214957,-3.537384 -5.713619,0.576197 -10.81529,3.000617 -14.89136,7.076687 -2.129201,2.1292 -3.538947,4.108285 -4.787083,6.720411 -3.944443,8.254978 -2.988391,17.818868 2.521432,25.223358 0.890323,1.19647 2.888999,3.27372 4.131865,4.29429 l 0.818775,0.67232 0.233942,-0.28059 c 0.128668,-0.15432 0.792059,-0.98606 1.474215,-1.84829 z m 132.836345,0.78614 c 4.92626,-4.11164 7.88551,-9.64311 8.56262,-16.00533 0.55313,-5.19766 -0.87986,-10.988305 -3.80018,-15.356195 -4.02552,-6.020904 -10.30382,-9.81549 -17.50882,-10.582263 -6.12229,-0.651557 -12.75438,1.389579 -17.46217,5.374287 -2.44689,2.07106 -4.40022,4.463619 -5.82716,7.137431 -0.69776,1.307504 -1.40904,3.049097 -1.28747,3.152436 0.0531,0.04517 0.88605,0.412774 1.85105,0.817 6.77646,2.838644 13.62576,6.918674 19.49998,11.615874 4.98816,3.98869 9.84418,8.87988 13.5195,13.61748 0.85605,1.10347 1.04536,1.28848 1.22179,1.19405 0.11482,-0.0615 0.66871,-0.4956 1.23086,-0.96477 z"
       id="path83"
       inkscape:connector-curvature="0" />
  </g>
</svg>
