<?xml version="1.0" encoding="UTF-8" standalone="no"?>
<!-- Created with Inkscape (http://www.inkscape.org/) -->

<svg
   xmlns:svg="http://www.w3.org/2000/svg"
   xmlns="http://www.w3.org/2000/svg"
   version="1.1"
   width="199.892"
   height="22.78075"
   id="svg3677">
  <defs
     id="defs3679" />
  <g
     transform="translate(-91.482571,-238.11467)"
     id="layer1">
    <path
       d="m 282.49082,243.86667 -8.02,0 0,11.34912 8.66125,0 c 1.08625,0 1.88125,-0.296 2.385,-0.88187 0.5025,-0.58638 0.7525,-1.50975 0.7525,-2.76363 l 0,-3.91075 c 0,-1.30562 -0.3075,-2.26362 -0.9175,-2.87537 -0.61125,-0.61238 -1.5625,-0.9175 -2.86125,-0.9175 z m 1.5625,-5.4815 c 2.5575,0 4.415,0.59675 5.57875,1.78462 1.1625,1.188 1.7425,3.0845 1.7425,5.68463 l 0,7.64262 c 0,2.47313 -0.46625,4.27725 -1.39375,5.415 -0.93,1.14113 -2.40625,1.71288 -4.43,1.71288 l -16.185,0 0,-22.23975 14.6875,0 z m -31.9175,13.19 6.435,0 -3.25125,-7.87213 -3.18375,7.87213 z m -3.56625,9.04975 -5.5775,0 9.14375,-22.23975 6.5225,0 8.97625,22.23975 -5.6125,0 -1.62,-3.70163 -10.2,0 -1.6325,3.70163 z m -7.0675,-16.82025 -13.19,0 0,3.36512 12.42625,0 0,4.67538 -12.42625,0 0,3.40087 13.39375,0 0,5.37888 -18.5,0 0,-22.23975 18.29625,0 0,5.4195 z m -37.32625,16.82025 -5.105,0 0,-22.23975 5.105,0 0,8.168 10.48,0 0,-8.168 5.14125,0 0,22.23975 -5.14125,0 0,-8.69238 -10.48,0 0,8.69238 z m -22.50725,0.2705 c -1.954,0 -3.38662,-0.11663 -4.29587,-0.3515 -0.90675,-0.23388 -1.643,-0.63288 -2.21525,-1.20363 -0.64063,-0.63775 -1.11038,-1.46825 -1.39363,-2.49812 -0.28462,-1.03513 -0.42625,-2.40138 -0.42625,-4.1045 l 0,-6.062 c 0,-1.86125 0.14263,-3.33975 0.42625,-4.42038 0.28475,-1.08587 0.7525,-1.94775 1.39363,-2.5855 0.56437,-0.5605 1.313,-0.95837 2.24562,-1.19775 0.933,-0.23975 2.34563,-0.35737 4.24213,-0.35737 l 6.0195,0 c 1.90437,0 3.32475,0.11725 4.26912,0.35737 0.94087,0.23938 1.68837,0.63825 2.24212,1.19775 0.62063,0.628 1.07863,1.484 1.36625,2.56988 0.288,1.0855 0.434,2.47262 0.434,4.1655 l 0,6.20025 c 0,1.71287 -0.146,3.105 -0.434,4.17525 -0.28762,1.07087 -0.74362,1.92287 -1.36625,2.55962 -0.55999,0.57175 -1.30562,0.96875 -2.22699,1.20363 -0.92138,0.23437 -2.34963,0.3515 -4.28425,0.3515 l -5.99613,0 z m 1.38575,-5.55763 3.24763,0 c 1.80812,0 3.00687,-0.29975 3.60112,-0.90187 0.59225,-0.601 0.88663,-1.72363 0.88663,-3.35538 l 0,-3.15037 c 0,-1.63188 -0.29438,-2.7545 -0.88663,-3.355 -0.59425,-0.60313 -1.793,-0.90238 -3.60112,-0.90238 l -3.271,0 c -1.84625,0 -3.05563,0.30563 -3.62788,0.91213 -0.57237,0.60687 -0.85987,1.75925 -0.85987,3.46237 l 0,3.09475 c 0,1.60063 0.30312,2.70213 0.90625,3.29875 0.6025,0.59625 1.80412,0.897 3.60487,0.897 z m -12.96825,5.28713 -5.11712,0 0,-22.23975 5.11712,0 0,22.23975 z m -17.2065,-16.75825 -8.0195,0 0,11.34912 8.66063,0 c 1.08637,0 1.88087,-0.2955 2.38375,-0.88187 0.5035,-0.58638 0.753,-1.50975 0.753,-2.76363 l 0,-3.91075 c 0,-1.30562 -0.30713,-2.26362 -0.9175,-2.87537 -0.61038,-0.61238 -1.5625,-0.9175 -2.86038,-0.9175 z m 1.563,-5.4815 c 2.55613,0 4.4145,0.59675 5.57763,1.78462 1.16312,1.188 1.74312,3.0845 1.74312,5.68463 l 0,7.64262 c 0,2.47313 -0.46625,4.27725 -1.3935,5.415 -0.93025,1.14113 -2.40775,1.71288 -4.43025,1.71288 l -16.1855,0 0,-22.23975 14.6885,0 z m -31.9175,13.19 6.43363,0 -3.251,-7.87213 -3.18263,7.87213 z m -3.56637,9.04975 -5.57863,0 9.145,-22.23975 6.522,0 8.976,22.23975 -5.61275,0 -1.62012,-3.70163 -10.20013,0 -1.63137,3.70163 z m -14.21638,-16.69775 -8.130874,0 0,5.43512 8.130874,0 c 0.68363,0 1.16363,-0.209 1.43613,-0.63237 0.27237,-0.42288 0.41062,-1.1875 0.41062,-2.294 0,-0.87738 -0.1455,-1.51463 -0.4375,-1.912 -0.292,-0.3975 -0.76375,-0.59675 -1.40925,-0.59675 z m 0.19238,-5.542 c 2.65625,0 4.461,0.52537 5.4205,1.57037 0.95937,1.04488 1.43937,2.95213 1.43937,5.72063 0,1.917 -0.21575,3.34912 -0.64062,4.28275 -0.42725,0.938 -1.1445,1.56537 -2.146,1.88137 0.88287,0.28025 1.54837,0.77438 1.98837,1.4785 0.44288,0.708 0.664,1.62688 0.664,2.75338 l 0,4.55275 -5.11712,0 0,-3.39013 c 0,-0.877 -0.15488,-1.4775 -0.46438,-1.80512 -0.312,-0.33013 -0.92575,-0.49463 -1.83887,-0.49463 l -7.628504,0 0,5.68988 -5.128875,0 0,-22.23975 13.452129,0"
       id="path20"
       style="fill:#ffffff;fill-opacity:1;fill-rule:evenodd;stroke:none" />
  </g>
</svg>
